<svg xmlns="http://www.w3.org/2000/svg" viewBox="0 0 120 168" width="120" height="168" shape-rendering="crispEdges">
<title>Yuri Cunha avatar logo</title>
  <rect x="18" y="0" width="6" height="6" fill="#0d0400"/>
  <rect x="24" y="0" width="6" height="6" fill="#1c0a05"/>
  <rect x="30" y="0" width="6" height="6" fill="#1c0a05"/>
  <rect x="36" y="0" width="6" height="6" fill="#1c0a05"/>
  <rect x="42" y="0" width="6" height="6" fill="#1c0a05"/>
  <rect x="48" y="0" width="6" height="6" fill="#1c0a05"/>
  <rect x="54" y="0" width="6" height="6" fill="#1c0a05"/>
  <rect x="60" y="0" width="6" height="6" fill="#1c0a05"/>
  <rect x="66" y="0" width="6" height="6" fill="#1c0a05"/>
  <rect x="72" y="0" width="6" height="6" fill="#1c0a05"/>
  <rect x="78" y="0" width="6" height="6" fill="#1c0a05"/>
  <rect x="84" y="0" width="6" height="6" fill="#0d0400"/>
  <rect x="12" y="6" width="6" height="6" fill="#0d0400"/>
  <rect x="18" y="6" width="6" height="6" fill="#1c0a05"/>
  <rect x="24" y="6" width="6" height="6" fill="#1c0a05"/>
  <rect x="30" y="6" width="6" height="6" fill="#2e1409"/>
  <rect x="36" y="6" width="6" height="6" fill="#1c0a05"/>
  <rect x="42" y="6" width="6" height="6" fill="#1c0a05"/>
  <rect x="48" y="6" width="6" height="6" fill="#1c0a05"/>
  <rect x="54" y="6" width="6" height="6" fill="#1c0a05"/>
  <rect x="60" y="6" width="6" height="6" fill="#1c0a05"/>
  <rect x="66" y="6" width="6" height="6" fill="#1c0a05"/>
  <rect x="72" y="6" width="6" height="6" fill="#2e1409"/>
  <rect x="78" y="6" width="6" height="6" fill="#1c0a05"/>
  <rect x="84" y="6" width="6" height="6" fill="#1c0a05"/>
  <rect x="90" y="6" width="6" height="6" fill="#0d0400"/>
  <rect x="6" y="12" width="6" height="6" fill="#0d0400"/>
  <rect x="12" y="12" width="6" height="6" fill="#1c0a05"/>
  <rect x="18" y="12" width="6" height="6" fill="#1c0a05"/>
  <rect x="24" y="12" width="6" height="6" fill="#3d1c0c"/>
  <rect x="30" y="12" width="6" height="6" fill="#1c0a05"/>
  <rect x="36" y="12" width="6" height="6" fill="#1c0a05"/>
  <rect x="42" y="12" width="6" height="6" fill="#1c0a05"/>
  <rect x="48" y="12" width="6" height="6" fill="#1c0a05"/>
  <rect x="54" y="12" width="6" height="6" fill="#1c0a05"/>
  <rect x="60" y="12" width="6" height="6" fill="#1c0a05"/>
  <rect x="66" y="12" width="6" height="6" fill="#1c0a05"/>
  <rect x="72" y="12" width="6" height="6" fill="#1c0a05"/>
  <rect x="78" y="12" width="6" height="6" fill="#3d1c0c"/>
  <rect x="84" y="12" width="6" height="6" fill="#1c0a05"/>
  <rect x="90" y="12" width="6" height="6" fill="#1c0a05"/>
  <rect x="96" y="12" width="6" height="6" fill="#0d0400"/>
  <rect x="6" y="18" width="6" height="6" fill="#0d0400"/>
  <rect x="12" y="18" width="6" height="6" fill="#1c0a05"/>
  <rect x="18" y="18" width="6" height="6" fill="#2e1409"/>
  <rect x="24" y="18" width="6" height="6" fill="#1c0a05"/>
  <rect x="30" y="18" width="6" height="6" fill="#1c0a05"/>
  <rect x="36" y="18" width="6" height="6" fill="#0d0400"/>
  <rect x="42" y="18" width="6" height="6" fill="#1c0a05"/>
  <rect x="48" y="18" width="6" height="6" fill="#1c0a05"/>
  <rect x="54" y="18" width="6" height="6" fill="#1c0a05"/>
  <rect x="60" y="18" width="6" height="6" fill="#1c0a05"/>
  <rect x="66" y="18" width="6" height="6" fill="#0d0400"/>
  <rect x="72" y="18" width="6" height="6" fill="#1c0a05"/>
  <rect x="78" y="18" width="6" height="6" fill="#1c0a05"/>
  <rect x="84" y="18" width="6" height="6" fill="#2e1409"/>
  <rect x="90" y="18" width="6" height="6" fill="#1c0a05"/>
  <rect x="96" y="18" width="6" height="6" fill="#0d0400"/>
  <rect x="12" y="24" width="6" height="6" fill="#0d0400"/>
  <rect x="18" y="24" width="6" height="6" fill="#1c0a05"/>
  <rect x="24" y="24" width="6" height="6" fill="#1c0a05"/>
  <rect x="30" y="24" width="6" height="6" fill="#1c0a05"/>
  <rect x="36" y="24" width="6" height="6" fill="#1c0a05"/>
  <rect x="42" y="24" width="6" height="6" fill="#1c0a05"/>
  <rect x="48" y="24" width="6" height="6" fill="#1c0a05"/>
  <rect x="54" y="24" width="6" height="6" fill="#1c0a05"/>
  <rect x="60" y="24" width="6" height="6" fill="#1c0a05"/>
  <rect x="66" y="24" width="6" height="6" fill="#1c0a05"/>
  <rect x="72" y="24" width="6" height="6" fill="#1c0a05"/>
  <rect x="78" y="24" width="6" height="6" fill="#1c0a05"/>
  <rect x="84" y="24" width="6" height="6" fill="#1c0a05"/>
  <rect x="90" y="24" width="6" height="6" fill="#0d0400"/>
  <rect x="18" y="30" width="6" height="6" fill="#c57844"/>
  <rect x="24" y="30" width="6" height="6" fill="#3d2008"/>
  <rect x="30" y="30" width="6" height="6" fill="#3d2008"/>
  <rect x="36" y="30" width="6" height="6" fill="#c57844"/>
  <rect x="42" y="30" width="6" height="6" fill="#c57844"/>
  <rect x="48" y="30" width="6" height="6" fill="#c57844"/>
  <rect x="54" y="30" width="6" height="6" fill="#c57844"/>
  <rect x="60" y="30" width="6" height="6" fill="#c57844"/>
  <rect x="66" y="30" width="6" height="6" fill="#c57844"/>
  <rect x="72" y="30" width="6" height="6" fill="#c57844"/>
  <rect x="78" y="30" width="6" height="6" fill="#c57844"/>
  <rect x="84" y="30" width="6" height="6" fill="#c57844"/>
  <rect x="18" y="36" width="6" height="6" fill="#c57844"/>
  <rect x="24" y="36" width="6" height="6" fill="#c57844"/>
  <rect x="30" y="36" width="6" height="6" fill="#c57844"/>
  <rect x="36" y="36" width="6" height="6" fill="#c57844"/>
  <rect x="42" y="36" width="6" height="6" fill="#c57844"/>
  <rect x="48" y="36" width="6" height="6" fill="#c57844"/>
  <rect x="54" y="36" width="6" height="6" fill="#c57844"/>
  <rect x="60" y="36" width="6" height="6" fill="#3d2008"/>
  <rect x="66" y="36" width="6" height="6" fill="#3d2008"/>
  <rect x="72" y="36" width="6" height="6" fill="#3d2008"/>
  <rect x="78" y="36" width="6" height="6" fill="#c57844"/>
  <rect x="84" y="36" width="6" height="6" fill="#c57844"/>
  <rect x="18" y="42" width="6" height="6" fill="#c57844"/>
  <rect x="24" y="42" width="6" height="6" fill="#f8f4ee"/>
  <rect x="30" y="42" width="6" height="6" fill="#080302"/>
  <rect x="36" y="42" width="6" height="6" fill="#f8f4ee"/>
  <rect x="42" y="42" width="6" height="6" fill="#c57844"/>
  <rect x="48" y="42" width="6" height="6" fill="#c57844"/>
  <rect x="54" y="42" width="6" height="6" fill="#c57844"/>
  <rect x="60" y="42" width="6" height="6" fill="#f8f4ee"/>
  <rect x="66" y="42" width="6" height="6" fill="#4a7060"/>
  <rect x="72" y="42" width="6" height="6" fill="#f8f4ee"/>
  <rect x="78" y="42" width="6" height="6" fill="#c57844"/>
  <rect x="84" y="42" width="6" height="6" fill="#c57844"/>
  <rect x="18" y="48" width="6" height="6" fill="#9a5e2c"/>
  <rect x="24" y="48" width="6" height="6" fill="#c57844"/>
  <rect x="30" y="48" width="6" height="6" fill="#c57844"/>
  <rect x="36" y="48" width="6" height="6" fill="#9a5e2c"/>
  <rect x="42" y="48" width="6" height="6" fill="#c57844"/>
  <rect x="48" y="48" width="6" height="6" fill="#c57844"/>
  <rect x="54" y="48" width="6" height="6" fill="#c57844"/>
  <rect x="60" y="48" width="6" height="6" fill="#9a5e2c"/>
  <rect x="66" y="48" width="6" height="6" fill="#c57844"/>
  <rect x="72" y="48" width="6" height="6" fill="#9a5e2c"/>
  <rect x="78" y="48" width="6" height="6" fill="#c57844"/>
  <rect x="84" y="48" width="6" height="6" fill="#9a5e2c"/>
  <rect x="18" y="54" width="6" height="6" fill="#c57844"/>
  <rect x="24" y="54" width="6" height="6" fill="#c57844"/>
  <rect x="30" y="54" width="6" height="6" fill="#c57844"/>
  <rect x="36" y="54" width="6" height="6" fill="#c57844"/>
  <rect x="42" y="54" width="6" height="6" fill="#c57844"/>
  <rect x="48" y="54" width="6" height="6" fill="#9a5e2c"/>
  <rect x="54" y="54" width="6" height="6" fill="#9a5e2c"/>
  <rect x="60" y="54" width="6" height="6" fill="#c57844"/>
  <rect x="66" y="54" width="6" height="6" fill="#c57844"/>
  <rect x="72" y="54" width="6" height="6" fill="#c57844"/>
  <rect x="78" y="54" width="6" height="6" fill="#c57844"/>
  <rect x="84" y="54" width="6" height="6" fill="#c57844"/>
  <rect x="18" y="60" width="6" height="6" fill="#d4945e"/>
  <rect x="24" y="60" width="6" height="6" fill="#c57844"/>
  <rect x="30" y="60" width="6" height="6" fill="#c57844"/>
  <rect x="36" y="60" width="6" height="6" fill="#c57844"/>
  <rect x="42" y="60" width="6" height="6" fill="#c57844"/>
  <rect x="48" y="60" width="6" height="6" fill="#c57844"/>
  <rect x="54" y="60" width="6" height="6" fill="#c57844"/>
  <rect x="60" y="60" width="6" height="6" fill="#c57844"/>
  <rect x="66" y="60" width="6" height="6" fill="#c57844"/>
  <rect x="72" y="60" width="6" height="6" fill="#c57844"/>
  <rect x="78" y="60" width="6" height="6" fill="#c57844"/>
  <rect x="84" y="60" width="6" height="6" fill="#d4945e"/>
  <rect x="18" y="66" width="6" height="6" fill="#c57844"/>
  <rect x="24" y="66" width="6" height="6" fill="#c57844"/>
  <rect x="30" y="66" width="6" height="6" fill="#c57844"/>
  <rect x="36" y="66" width="6" height="6" fill="#9a5e2c"/>
  <rect x="42" y="66" width="6" height="6" fill="#f0e4d0"/>
  <rect x="48" y="66" width="6" height="6" fill="#f0e4d0"/>
  <rect x="54" y="66" width="6" height="6" fill="#f0e4d0"/>
  <rect x="60" y="66" width="6" height="6" fill="#f0e4d0"/>
  <rect x="66" y="66" width="6" height="6" fill="#9a5e2c"/>
  <rect x="72" y="66" width="6" height="6" fill="#c57844"/>
  <rect x="78" y="66" width="6" height="6" fill="#c57844"/>
  <rect x="84" y="66" width="6" height="6" fill="#c57844"/>
  <rect x="18" y="72" width="6" height="6" fill="#c57844"/>
  <rect x="24" y="72" width="6" height="6" fill="#4a2810"/>
  <rect x="30" y="72" width="6" height="6" fill="#4a2810"/>
  <rect x="36" y="72" width="6" height="6" fill="#4a2810"/>
  <rect x="42" y="72" width="6" height="6" fill="#c57844"/>
  <rect x="48" y="72" width="6" height="6" fill="#c57844"/>
  <rect x="54" y="72" width="6" height="6" fill="#c57844"/>
  <rect x="60" y="72" width="6" height="6" fill="#c57844"/>
  <rect x="66" y="72" width="6" height="6" fill="#4a2810"/>
  <rect x="72" y="72" width="6" height="6" fill="#4a2810"/>
  <rect x="78" y="72" width="6" height="6" fill="#4a2810"/>
  <rect x="84" y="72" width="6" height="6" fill="#c57844"/>
  <rect x="18" y="78" width="6" height="6" fill="#4a2810"/>
  <rect x="24" y="78" width="6" height="6" fill="#2d1508"/>
  <rect x="30" y="78" width="6" height="6" fill="#4a2810"/>
  <rect x="36" y="78" width="6" height="6" fill="#4a2810"/>
  <rect x="42" y="78" width="6" height="6" fill="#4a2810"/>
  <rect x="48" y="78" width="6" height="6" fill="#4a2810"/>
  <rect x="54" y="78" width="6" height="6" fill="#4a2810"/>
  <rect x="60" y="78" width="6" height="6" fill="#4a2810"/>
  <rect x="66" y="78" width="6" height="6" fill="#4a2810"/>
  <rect x="72" y="78" width="6" height="6" fill="#4a2810"/>
  <rect x="78" y="78" width="6" height="6" fill="#2d1508"/>
  <rect x="84" y="78" width="6" height="6" fill="#4a2810"/>
  <rect x="24" y="84" width="6" height="6" fill="#2d1508"/>
  <rect x="30" y="84" width="6" height="6" fill="#4a2810"/>
  <rect x="36" y="84" width="6" height="6" fill="#4a2810"/>
  <rect x="42" y="84" width="6" height="6" fill="#4a2810"/>
  <rect x="48" y="84" width="6" height="6" fill="#4a2810"/>
  <rect x="54" y="84" width="6" height="6" fill="#4a2810"/>
  <rect x="60" y="84" width="6" height="6" fill="#4a2810"/>
  <rect x="66" y="84" width="6" height="6" fill="#4a2810"/>
  <rect x="72" y="84" width="6" height="6" fill="#4a2810"/>
  <rect x="78" y="84" width="6" height="6" fill="#2d1508"/>
  <rect x="30" y="90" width="6" height="6" fill="#c57844"/>
  <rect x="36" y="90" width="6" height="6" fill="#c57844"/>
  <rect x="42" y="90" width="6" height="6" fill="#c57844"/>
  <rect x="48" y="90" width="6" height="6" fill="#c57844"/>
  <rect x="54" y="90" width="6" height="6" fill="#c57844"/>
  <rect x="60" y="90" width="6" height="6" fill="#c57844"/>
  <rect x="66" y="90" width="6" height="6" fill="#c57844"/>
  <rect x="30" y="96" width="6" height="6" fill="#c57844"/>
  <rect x="36" y="96" width="6" height="6" fill="#c57844"/>
  <rect x="42" y="96" width="6" height="6" fill="#c57844"/>
  <rect x="48" y="96" width="6" height="6" fill="#c57844"/>
  <rect x="54" y="96" width="6" height="6" fill="#c57844"/>
  <rect x="60" y="96" width="6" height="6" fill="#c57844"/>
  <rect x="66" y="96" width="6" height="6" fill="#c57844"/>
  <rect x="0" y="102" width="6" height="6" fill="#0a0a0a"/>
  <rect x="6" y="102" width="6" height="6" fill="#0a0a0a"/>
  <rect x="12" y="102" width="6" height="6" fill="#0a0a0a"/>
  <rect x="30" y="102" width="6" height="6" fill="#0a0a0a"/>
  <rect x="36" y="102" width="6" height="6" fill="#0a0a0a"/>
  <rect x="42" y="102" width="6" height="6" fill="#0a0a0a"/>
  <rect x="48" y="102" width="6" height="6" fill="#0a0a0a"/>
  <rect x="54" y="102" width="6" height="6" fill="#0a0a0a"/>
  <rect x="60" y="102" width="6" height="6" fill="#0a0a0a"/>
  <rect x="84" y="102" width="6" height="6" fill="#0a0a0a"/>
  <rect x="90" y="102" width="6" height="6" fill="#0a0a0a"/>
  <rect x="96" y="102" width="6" height="6" fill="#0a0a0a"/>
  <rect x="0" y="108" width="6" height="6" fill="#0a0a0a"/>
  <rect x="6" y="108" width="6" height="6" fill="#0a0a0a"/>
  <rect x="30" y="108" width="6" height="6" fill="#0a0a0a"/>
  <rect x="36" y="108" width="6" height="6" fill="#0a0a0a"/>
  <rect x="42" y="108" width="6" height="6" fill="#0a0a0a"/>
  <rect x="48" y="108" width="6" height="6" fill="#0a0a0a"/>
  <rect x="54" y="108" width="6" height="6" fill="#0a0a0a"/>
  <rect x="60" y="108" width="6" height="6" fill="#0a0a0a"/>
  <rect x="90" y="108" width="6" height="6" fill="#0a0a0a"/>
  <rect x="96" y="108" width="6" height="6" fill="#0a0a0a"/>
  <rect x="0" y="114" width="6" height="6" fill="#0a0a0a"/>
  <rect x="30" y="114" width="6" height="6" fill="#0a0a0a"/>
  <rect x="36" y="114" width="6" height="6" fill="#141414"/>
  <rect x="42" y="114" width="6" height="6" fill="#0a0a0a"/>
  <rect x="48" y="114" width="6" height="6" fill="#0a0a0a"/>
  <rect x="54" y="114" width="6" height="6" fill="#141414"/>
  <rect x="60" y="114" width="6" height="6" fill="#0a0a0a"/>
  <rect x="96" y="114" width="6" height="6" fill="#0a0a0a"/>
  <rect x="0" y="120" width="6" height="6" fill="#c57844"/>
  <rect x="6" y="120" width="6" height="6" fill="#c57844"/>
  <rect x="30" y="120" width="6" height="6" fill="#0a0a0a"/>
  <rect x="36" y="120" width="6" height="6" fill="#0a0a0a"/>
  <rect x="42" y="120" width="6" height="6" fill="#0a0a0a"/>
  <rect x="48" y="120" width="6" height="6" fill="#0a0a0a"/>
  <rect x="54" y="120" width="6" height="6" fill="#0a0a0a"/>
  <rect x="60" y="120" width="6" height="6" fill="#0a0a0a"/>
  <rect x="90" y="120" width="6" height="6" fill="#c57844"/>
  <rect x="96" y="120" width="6" height="6" fill="#c57844"/>
  <rect x="0" y="126" width="6" height="6" fill="#c57844"/>
  <rect x="30" y="126" width="6" height="6" fill="#0a0a0a"/>
  <rect x="36" y="126" width="6" height="6" fill="#0a0a0a"/>
  <rect x="42" y="126" width="6" height="6" fill="#0a0a0a"/>
  <rect x="48" y="126" width="6" height="6" fill="#0a0a0a"/>
  <rect x="54" y="126" width="6" height="6" fill="#0a0a0a"/>
  <rect x="60" y="126" width="6" height="6" fill="#0a0a0a"/>
  <rect x="96" y="126" width="6" height="6" fill="#c57844"/>
  <rect x="30" y="132" width="6" height="6" fill="#0a0a0a"/>
  <rect x="36" y="132" width="6" height="6" fill="#141414"/>
  <rect x="42" y="132" width="6" height="6" fill="#0a0a0a"/>
  <rect x="48" y="132" width="6" height="6" fill="#0a0a0a"/>
  <rect x="54" y="132" width="6" height="6" fill="#141414"/>
  <rect x="60" y="132" width="6" height="6" fill="#0a0a0a"/>
  <rect x="30" y="138" width="6" height="6" fill="#0a0a0a"/>
  <rect x="36" y="138" width="6" height="6" fill="#0a0a0a"/>
  <rect x="42" y="138" width="6" height="6" fill="#0a0a0a"/>
  <rect x="48" y="138" width="6" height="6" fill="#0a0a0a"/>
  <rect x="54" y="138" width="6" height="6" fill="#0a0a0a"/>
  <rect x="60" y="138" width="6" height="6" fill="#0a0a0a"/>
  <rect x="30" y="144" width="6" height="6" fill="#0a0a0a"/>
  <rect x="36" y="144" width="6" height="6" fill="#0a0a0a"/>
  <rect x="42" y="144" width="6" height="6" fill="#0a0a0a"/>
  <rect x="48" y="144" width="6" height="6" fill="#0a0a0a"/>
  <rect x="54" y="144" width="6" height="6" fill="#0a0a0a"/>
  <rect x="60" y="144" width="6" height="6" fill="#0a0a0a"/>
</svg>
